<svg width="78" height="19" viewBox="0 0 78 19" fill="none" xmlns="http://www.w3.org/2000/svg">
<path d="M29.4008 8.09961C29.2008 9.59961 28.0008 9.59961 26.9008 9.59961H26.3008L26.8008 6.69961C26.8008 6.49961 27.0008 6.39961 27.2008 6.39961H27.5008C28.3008 6.39961 29.0008 6.39961 29.4008 6.79961C29.4008 7.19961 29.4008 7.59961 29.4008 8.09961ZM28.9008 4.09961H24.6008C24.3008 4.09961 24.1008 4.29961 24.0008 4.59961L22.3008 15.5996C22.3008 15.7996 22.4008 15.9996 22.7008 15.9996H24.7008C25.0008 15.9996 25.2008 15.7996 25.3008 15.4996L25.8008 12.4996C25.8008 12.1996 26.1008 11.9996 26.4008 11.9996H27.8008C30.6008 11.9996 32.2008 10.5996 32.7008 7.89961C32.9008 6.69961 32.7008 5.79961 32.2008 5.09961C31.4008 4.49961 30.3008 4.09961 28.9008 4.09961Z" fill="#263577"/>
<path d="M38.8003 12.1004C38.6003 13.3004 37.7003 14.1004 36.5003 14.1004C35.9003 14.1004 35.4003 13.9004 35.1003 13.5004C34.8003 13.1004 34.7003 12.6004 34.8003 12.1004C35.0003 10.9004 35.9003 10.1004 37.1003 10.1004C37.7003 10.1004 38.2003 10.3004 38.5003 10.7004C38.7003 11.0004 38.9003 11.5004 38.8003 12.1004ZM41.6003 8.10039H39.6003C39.4003 8.10039 39.3003 8.20039 39.2003 8.40039L39.1003 9.00039L39.0003 8.80039C38.6003 8.20039 37.6003 7.90039 36.6003 7.90039C34.3003 7.90039 32.4003 9.60039 32.0003 12.0004C31.8003 13.2004 32.1003 14.3004 32.8003 15.1004C33.4003 15.8004 34.3003 16.1004 35.4003 16.1004C37.2003 16.1004 38.2003 14.9004 38.2003 14.9004L38.1003 15.5004C38.1003 15.7004 38.2003 15.9004 38.5003 15.9004H40.3003C40.6003 15.9004 40.8003 15.7004 40.9003 15.4004L42.0003 8.40039C42.0003 8.30039 41.9003 8.10039 41.6003 8.10039Z" fill="#263577"/>
<path d="M52.4993 8.09961H50.3993C50.1993 8.09961 49.9992 8.19961 49.8993 8.39961L47.0993 12.5996L45.8992 8.59961C45.7992 8.29961 45.5992 8.19961 45.2992 8.19961H43.2992C43.0992 8.19961 42.8993 8.39961 42.9993 8.69961L45.2992 15.2996L43.1992 18.2996C42.9992 18.4996 43.1993 18.8996 43.4993 18.8996H45.5993C45.7993 18.8996 45.9993 18.7996 46.0993 18.5996L52.8993 8.69961C52.9993 8.39961 52.7993 8.09961 52.4993 8.09961Z" fill="#263577"/>
<path d="M59.7992 8.09961C59.5992 9.59961 58.3992 9.59961 57.2992 9.59961H56.6992L57.1992 6.69961C57.1992 6.49961 57.3992 6.39961 57.5992 6.39961H57.8992C58.6992 6.39961 59.3992 6.39961 59.7992 6.79961C59.8992 7.19961 59.8992 7.59961 59.7992 8.09961ZM59.2992 4.09961H54.9992C54.6992 4.09961 54.4992 4.29961 54.3992 4.59961L52.6992 15.5996C52.6992 15.7996 52.7992 15.9996 53.0992 15.9996H55.2992C55.4992 15.9996 55.6992 15.8996 55.6992 15.5996L56.1992 12.4996C56.1992 12.1996 56.4992 11.9996 56.7992 11.9996H58.1992C60.9992 11.9996 62.5992 10.5996 63.0992 7.89961C63.2992 6.69961 63.0992 5.79961 62.5992 5.09961C61.8992 4.49961 60.7992 4.09961 59.2992 4.09961Z" fill="#2199D6"/>
<path d="M69.3003 12.1004C69.1003 13.3004 68.2003 14.1004 67.0003 14.1004C66.4003 14.1004 65.9003 13.9004 65.6003 13.5004C65.3003 13.1004 65.2003 12.6004 65.3003 12.1004C65.5003 10.9004 66.4003 10.1004 67.6003 10.1004C68.2003 10.1004 68.7003 10.3004 69.0003 10.7004C69.2003 11.0004 69.4003 11.5004 69.3003 12.1004ZM72.1003 8.10039H70.1003C69.9003 8.10039 69.8003 8.20039 69.7003 8.40039L69.6003 9.00039L69.5003 8.80039C69.1003 8.20039 68.1003 7.90039 67.1003 7.90039C64.8003 7.90039 62.9003 9.60039 62.5003 12.0004C62.3003 13.2004 62.6003 14.3004 63.3003 15.1004C63.9003 15.8004 64.8003 16.1004 65.9003 16.1004C67.7003 16.1004 68.7003 14.9004 68.7003 14.9004L68.6003 15.5004C68.6003 15.7004 68.7003 15.9004 69.0003 15.9004H70.8003C71.1003 15.9004 71.3003 15.7004 71.4003 15.4004L72.5003 8.40039C72.5003 8.30039 72.3003 8.10039 72.1003 8.10039Z" fill="#2199D6"/>
<path d="M74.4992 4.39961L72.6992 15.5996C72.6992 15.7996 72.7992 15.9996 73.0992 15.9996H74.8992C75.1992 15.9996 75.3992 15.7996 75.4992 15.4996L77.1992 4.49961C77.1992 4.29961 77.0992 4.09961 76.7992 4.09961H74.7992C74.6992 4.09961 74.5992 4.29961 74.4992 4.39961Z" fill="#2199D6"/>
<path d="M4.49962 18.0996L4.79961 15.9996H4.09961H0.599609L2.99962 0.699608C2.99962 0.699608 2.99961 0.599609 3.09961 0.599609H3.19962H9.09961C10.9996 0.599609 12.3996 0.99961 13.0996 1.79961C13.3996 2.19961 13.5996 2.59961 13.6996 2.99961C13.7996 3.49961 13.7996 3.99961 13.6996 4.69961V5.09961L13.9996 5.29961C14.2996 5.39961 14.4996 5.59961 14.6996 5.79961C14.9996 6.09961 15.1996 6.49961 15.1996 6.99961C15.2996 7.49961 15.2996 8.09961 15.0996 8.79961C14.8996 9.59961 14.6996 10.1996 14.3996 10.7996C14.0996 11.2996 13.6996 11.6996 13.2996 12.0996C12.8996 12.3996 12.2996 12.5996 11.7996 12.7996C11.1996 12.8996 10.5996 12.9996 9.89961 12.9996H9.39961C9.09961 12.9996 8.79962 13.0996 8.49962 13.2996C8.29962 13.4996 8.09962 13.7996 7.99962 14.0996V14.2996L7.39961 17.9996V18.0996V18.1996C7.39961 18.1996 7.39961 18.1996 7.29961 18.1996H4.49962V18.0996Z" fill="#263577"/>
<path d="M14.4004 4.69922C14.4004 4.79922 14.4004 4.89922 14.3004 4.99922C13.5004 8.99922 10.9004 10.2992 7.5004 10.2992H5.80038C5.40038 10.2992 5.0004 10.5992 5.0004 10.9992L4.10039 16.5992L3.90039 18.1992C3.90039 18.4992 4.10038 18.6992 4.30038 18.6992H7.40039C7.80039 18.6992 8.10039 18.3992 8.10039 18.0992V17.8992L8.70039 14.2992V14.0992C8.80039 13.6992 9.10039 13.4992 9.40039 13.4992H9.90039C12.9004 13.4992 15.2004 12.2992 15.8004 8.79922C16.1004 7.29922 15.9004 6.09922 15.2004 5.29922C15.0004 5.09922 14.7004 4.89922 14.4004 4.69922Z" fill="#2199D6"/>
<path d="M13.6 4.39961C13.5 4.39961 13.4 4.29961 13.2 4.29961C13.1 4.29961 12.9 4.19961 12.8 4.19961C12.3 4.09961 11.8 4.09961 11.3 4.09961H6.7C6.6 4.09961 6.49999 4.09961 6.39999 4.19961C6.19999 4.29961 6 4.49961 6 4.69961L5 10.8996V11.0996C5.1 10.6996 5.39999 10.3996 5.79999 10.3996H7.5C10.9 10.3996 13.5 8.99961 14.3 5.09961C14.3 4.99961 14.3 4.89961 14.4 4.79961C14.2 4.69961 14 4.59961 13.8 4.49961C13.7 4.39961 13.6 4.39961 13.6 4.39961Z" fill="#252C5E"/>
<path d="M6 4.7C6 4.5 6.19999 4.3 6.39999 4.2C6.49999 4.2 6.6 4.1 6.7 4.1H11.3C11.8 4.1 12.4 4.1 12.8 4.2C12.9 4.2 13.1 4.2 13.2 4.3C13.3 4.3 13.4 4.4 13.6 4.4C13.7 4.4 13.7 4.4 13.8 4.5C14 4.6 14.2 4.7 14.4 4.8C14.6 3.3 14.4 2.3 13.6 1.4C12.7 0.399998 11.1 0 9.09999 0H3.2C2.8 0 2.39999 0.299997 2.39999 0.699997L0 16.1C0 16.4 0.2 16.7 0.5 16.7H4.09999L5 10.9L6 4.7Z" fill="#263577"/>
</svg>
