<svg width="16" height="19" viewBox="0 0 16 19" fill="none" xmlns="http://www.w3.org/2000/svg">
<circle cx="8" cy="9" r="8" fill="#B8BEC9"/>
<path d="M6.71094 11.5078C6.71094 10.7786 6.79948 10.1979 6.97656 9.76562C7.15365 9.33333 7.47656 8.90885 7.94531 8.49219C8.41927 8.07031 8.73438 7.72917 8.89062 7.46875C9.04688 7.20312 9.125 6.92448 9.125 6.63281C9.125 5.7526 8.71875 5.3125 7.90625 5.3125C7.52083 5.3125 7.21094 5.43229 6.97656 5.67188C6.7474 5.90625 6.6276 6.23177 6.61719 6.64844H4.35156C4.36198 5.65365 4.68229 4.875 5.3125 4.3125C5.94792 3.75 6.8125 3.46875 7.90625 3.46875C9.01042 3.46875 9.86719 3.73698 10.4766 4.27344C11.0859 4.80469 11.3906 5.55729 11.3906 6.53125C11.3906 6.97396 11.2917 7.39323 11.0938 7.78906C10.8958 8.17969 10.5495 8.61458 10.0547 9.09375L9.42188 9.69531C9.02604 10.0755 8.79948 10.5208 8.74219 11.0312L8.71094 11.5078H6.71094ZM6.48438 13.9062C6.48438 13.5573 6.60156 13.2708 6.83594 13.0469C7.07552 12.8177 7.38021 12.7031 7.75 12.7031C8.11979 12.7031 8.42188 12.8177 8.65625 13.0469C8.89583 13.2708 9.01562 13.5573 9.01562 13.9062C9.01562 14.25 8.89844 14.5339 8.66406 14.7578C8.4349 14.9818 8.13021 15.0938 7.75 15.0938C7.36979 15.0938 7.0625 14.9818 6.82812 14.7578C6.59896 14.5339 6.48438 14.25 6.48438 13.9062Z" fill="white"/>
</svg>
