<svg width="35" height="12" viewBox="0 0 35 12" fill="none" xmlns="http://www.w3.org/2000/svg">
<path d="M12.9744 0.646277L8.51442 11.3231H5.54113L3.37874 2.80867C3.37874 2.40322 3.10844 1.99777 2.70299 1.86262C1.89209 1.45717 0.946047 1.18687 0 0.916575V0.646277H4.73023C5.40598 0.646277 5.94658 1.18687 5.94658 1.72747L7.16293 7.8092L10.0011 0.511127H12.9744V0.646277ZM24.3269 7.8092C24.3269 4.97106 20.4076 4.83591 20.4076 3.61957C20.4076 3.21412 20.813 2.80867 21.6239 2.67352C22.57 2.53837 23.516 2.80867 24.3269 3.21412L24.7324 0.916575C23.9215 0.646276 22.9754 0.511126 22.1645 0.375977C19.4615 0.375977 17.5694 1.86262 17.4343 3.88986C17.4343 5.37651 18.7858 6.32256 19.867 6.728C20.9482 7.13345 21.3536 7.5389 21.3536 8.0795C21.3536 8.75525 20.5427 9.1607 19.7318 9.1607C18.7858 9.1607 17.7046 8.8904 16.8937 8.48495L16.3531 10.7825C17.2991 11.1879 18.3803 11.3231 19.4615 11.3231C22.4348 11.4582 24.3269 10.1067 24.3269 7.8092ZM31.4898 11.3231H34.0577L31.8953 0.646277H29.5977C29.0571 0.646277 28.6517 0.916575 28.3814 1.45717L24.1918 11.3231H27.0299L27.5705 9.70129H31.2195L31.4898 11.3231ZM28.3814 7.5389L29.868 3.48442L30.6789 7.40375L28.3814 7.5389ZM16.8937 0.646277L14.5961 11.3231H11.8932L14.1907 0.646277H16.8937Z" fill="#1434CB"/>
</svg>
