<svg width="23" height="15" viewBox="0 0 23 15" fill="none" xmlns="http://www.w3.org/2000/svg">
<path d="M14.8065 2.28125H9.08008V12.5718H14.8065V2.28125Z" fill="#FF5F00"/>
<path d="M9.44469 7.42733C9.44379 6.43627 9.66836 5.458 10.1014 4.56656C10.5345 3.67513 11.1647 2.89391 11.9443 2.28203C10.9789 1.52317 9.81938 1.05124 8.5984 0.92019C7.37742 0.789141 6.1442 1.00425 5.03969 1.54095C3.93519 2.07765 3.00396 2.91427 2.35246 3.95519C1.70096 4.99612 1.35547 6.19934 1.35547 7.42733C1.35547 8.65533 1.70096 9.85855 2.35246 10.8995C3.00396 11.9404 3.93519 12.777 5.03969 13.3137C6.1442 13.8504 7.37742 14.0655 8.5984 13.9345C9.81938 13.8034 10.9789 13.3315 11.9443 12.5726C11.1647 11.9607 10.5345 11.1795 10.1014 10.2881C9.66838 9.39666 9.44379 8.41839 9.44469 7.42733V7.42733Z" fill="#EB001B"/>
<path d="M22.5338 7.42733C22.5339 8.65531 22.1884 9.85852 21.537 10.8994C20.8855 11.9404 19.9543 12.777 18.8498 13.3137C17.7453 13.8504 16.5121 14.0655 15.2912 13.9345C14.0702 13.8034 12.9107 13.3315 11.9453 12.5726C12.7242 11.9601 13.354 11.1788 13.7869 10.2875C14.2199 9.3962 14.4449 8.41823 14.4449 7.42733C14.4449 6.43643 14.2199 5.45846 13.7869 4.56717C13.354 3.67587 12.7242 2.89452 11.9453 2.28203C12.9107 1.52316 14.0702 1.05124 15.2912 0.920188C16.5121 0.789141 17.7453 1.00426 18.8498 1.54097C19.9543 2.07767 20.8855 2.91429 21.537 3.95522C22.1884 4.99614 22.5339 6.19935 22.5338 7.42733V7.42733Z" fill="#F79E1B"/>
<path d="M21.9086 11.4827V11.2721H21.9936V11.2291H21.7772V11.2721H21.8622V11.4827H21.9086ZM22.3287 11.4827V11.2287H22.2623L22.1861 11.4034L22.1098 11.2287H22.0434V11.4827H22.0902V11.2911L22.1618 11.4563H22.2103L22.2819 11.2907V11.4827H22.3287Z" fill="#F79E1B"/>
</svg>
